<svg width="16" height="16" viewBox="0 0 16 16" fill="none" xmlns="http://www.w3.org/2000/svg">
<path fill-rule="evenodd" clip-rule="evenodd" d="M8 1.5C9.24936 1.50011 10.4722 1.86027 11.5222 2.53738C12.5722 3.21448 13.4047 4.17984 13.9203 5.31788C14.4358 6.45592 14.6124 7.71842 14.429 8.95425C14.2456 10.1901 13.7099 11.3469 12.8861 12.2861C12.0623 13.2254 10.9852 13.9073 9.78382 14.2503C8.58246 14.5933 7.3077 14.5827 6.11216 14.22C4.91662 13.8572 3.85095 13.1576 3.04274 12.2049C2.23452 11.2522 1.71799 10.0867 1.555 8.848C1.53979 8.74922 1.54448 8.64839 1.56879 8.55145C1.59309 8.4545 1.63653 8.36339 1.69655 8.28348C1.75657 8.20356 1.83196 8.13644 1.91829 8.08607C2.00461 8.0357 2.10013 8.00309 2.19924 7.99016C2.29835 7.97723 2.39904 7.98424 2.49539 8.01078C2.59175 8.03732 2.68184 8.08284 2.76035 8.14469C2.83886 8.20653 2.90423 8.28345 2.95259 8.37091C3.00096 8.45837 3.03136 8.55462 3.042 8.654C3.18949 9.77537 3.71274 10.8136 4.52635 11.5993C5.33995 12.385 6.39585 12.8717 7.52169 12.9799C8.64753 13.0881 9.77682 12.8116 10.7252 12.1953C11.6736 11.579 12.3851 10.6595 12.7435 9.58673C13.102 8.514 13.0862 7.35145 12.6988 6.28884C12.3113 5.22623 11.5752 4.32632 10.6104 3.73602C9.64564 3.14572 8.50926 2.89988 7.38678 3.03863C6.26429 3.17738 5.22198 3.69254 4.43 4.5H5.75C5.94891 4.5 6.13968 4.57902 6.28033 4.71967C6.42098 4.86032 6.5 5.05109 6.5 5.25C6.5 5.44891 6.42098 5.63968 6.28033 5.78033C6.13968 5.92098 5.94891 6 5.75 6H2.75C2.55109 6 2.36032 5.92098 2.21967 5.78033C2.07902 5.63968 2 5.44891 2 5.25V2.25C2 2.05109 2.07902 1.86032 2.21967 1.71967C2.36032 1.57902 2.55109 1.5 2.75 1.5C2.94891 1.5 3.13968 1.57902 3.28033 1.71967C3.42098 1.86032 3.5 2.05109 3.5 2.25V3.31C4.70912 2.14686 6.32225 1.49803 8 1.5Z" fill="black"/>
</svg>
