<svg width="72" height="24" viewBox="0 0 72 24" fill="none" xmlns="http://www.w3.org/2000/svg">
<g clip-path="url(#clip0_161_413)">
<mask id="mask0_161_413" style="mask-type:luminance" maskUnits="userSpaceOnUse" x="0" y="0" width="24" height="24">
<path d="M0 0H24V24H0V0Z" fill="white"/>
</mask>
<g mask="url(#mask0_161_413)">
<path fill-rule="evenodd" clip-rule="evenodd" d="M7.59 14.91C7.16845 14.4879 6.59654 14.2505 6 14.25H3C2.80109 14.25 2.61032 14.171 2.46967 14.0303C2.32902 13.8897 2.25 13.6989 2.25 13.5V10.5C2.25 10.3011 2.32902 10.1103 2.46967 9.96967C2.61032 9.82901 2.80109 9.75 3 9.75H6C6.59654 9.74947 7.16845 9.51207 7.59 9.09L11.3145 5.367C11.3708 5.31099 11.4424 5.27291 11.5204 5.25758C11.5983 5.24224 11.679 5.25032 11.7523 5.28081C11.8257 5.3113 11.8883 5.36282 11.9324 5.42888C11.9765 5.49494 12 5.57258 12 5.65199V18.348C12 18.4274 11.9765 18.505 11.9324 18.5711C11.8883 18.6372 11.8257 18.6887 11.7523 18.7192C11.679 18.7497 11.5983 18.7578 11.5204 18.7424C11.4424 18.7271 11.3708 18.689 11.3145 18.633L7.59 14.91ZM3 7.5H6L9.723 3.777C10.0939 3.40621 10.5664 3.15371 11.0808 3.05142C11.5951 2.94913 12.1283 3.00165 12.6128 3.20233C13.0973 3.40302 13.5115 3.74285 13.8029 4.17888C14.0943 4.61491 14.2499 5.12755 14.25 5.65199V18.348C14.2499 18.8724 14.0943 19.3851 13.8029 19.8211C13.5115 20.2571 13.0973 20.597 12.6128 20.7977C12.1283 20.9983 11.5951 21.0509 11.0808 20.9486C10.5664 20.8463 10.0939 20.5938 9.723 20.223L6 16.5H3C2.20435 16.5 1.44129 16.1839 0.87868 15.6213C0.316071 15.0587 0 14.2956 0 13.5V10.5C0 9.70435 0.316071 8.94128 0.87868 8.37867C1.44129 7.81607 2.20435 7.5 3 7.5ZM21.243 19.6545C20.8455 20.133 20.1285 20.1285 19.689 19.6905C19.251 19.251 19.257 18.5415 19.6425 18.0555C21.0107 16.334 21.7538 14.199 21.75 12C21.7538 9.80103 21.0107 7.66594 19.6425 5.9445C19.257 5.4585 19.251 4.749 19.689 4.3095C20.1285 3.8715 20.8455 3.8685 21.243 4.3455C23.0286 6.4962 24.0042 9.20464 24 12C24 14.91 22.965 17.577 21.243 19.6545ZM18.036 16.452C17.667 16.9515 16.947 16.947 16.5075 16.5075C16.068 16.068 16.0815 15.3615 16.4175 14.838C16.9612 13.9913 17.2502 13.0062 17.25 12C17.25 10.9545 16.944 9.9795 16.4175 9.16199C16.0815 8.64 16.068 7.93199 16.5075 7.4925C16.947 7.05299 17.667 7.0485 18.0375 7.548C18.9555 8.79299 19.5 10.335 19.5 12C19.5022 13.6026 18.9889 15.1635 18.036 16.452Z" fill="white"/>
</g>
</g>
<path fill-rule="evenodd" clip-rule="evenodd" d="M54.75 4.5C54.1533 4.5 53.581 4.73705 53.159 5.15901C52.7371 5.58097 52.5 6.15326 52.5 6.75V9.375C52.5 9.67337 52.3815 9.95952 52.1705 10.1705C51.9595 10.3815 51.6734 10.5 51.375 10.5C51.0766 10.5 50.7905 10.3815 50.5795 10.1705C50.3685 9.95952 50.25 9.67337 50.25 9.375V6.75C50.25 5.55653 50.7241 4.41193 51.568 3.56802C52.4119 2.72411 53.5565 2.25 54.75 2.25H57.375C57.6734 2.25 57.9595 2.36853 58.1705 2.5795C58.3815 2.79048 58.5 3.07663 58.5 3.375C58.5 3.67337 58.3815 3.95952 58.1705 4.1705C57.9595 4.38147 57.6734 4.5 57.375 4.5H54.75ZM61.5 3.375C61.5 3.07663 61.6185 2.79048 61.8295 2.5795C62.0405 2.36853 62.3266 2.25 62.625 2.25H65.25C66.4435 2.25 67.5881 2.72411 68.432 3.56802C69.2759 4.41193 69.75 5.55653 69.75 6.75V9.375C69.75 9.67337 69.6315 9.95952 69.4205 10.1705C69.2095 10.3815 68.9234 10.5 68.625 10.5C68.3266 10.5 68.0405 10.3815 67.8295 10.1705C67.6185 9.95952 67.5 9.67337 67.5 9.375V6.75C67.5 6.15326 67.2629 5.58097 66.841 5.15901C66.419 4.73705 65.8467 4.5 65.25 4.5H62.625C62.3266 4.5 62.0405 4.38147 61.8295 4.1705C61.6185 3.95952 61.5 3.67337 61.5 3.375ZM51.375 13.5C51.6734 13.5 51.9595 13.6185 52.1705 13.8295C52.3815 14.0405 52.5 14.3266 52.5 14.625V17.25C52.5 17.8467 52.7371 18.419 53.159 18.841C53.581 19.2629 54.1533 19.5 54.75 19.5H57.375C57.6734 19.5 57.9595 19.6185 58.1705 19.8295C58.3815 20.0405 58.5 20.3266 58.5 20.625C58.5 20.9234 58.3815 21.2095 58.1705 21.4205C57.9595 21.6315 57.6734 21.75 57.375 21.75H54.75C53.5565 21.75 52.4119 21.2759 51.568 20.432C50.7241 19.5881 50.25 18.4435 50.25 17.25V14.625C50.25 14.3266 50.3685 14.0405 50.5795 13.8295C50.7905 13.6185 51.0766 13.5 51.375 13.5ZM68.625 13.5C68.9234 13.5 69.2095 13.6185 69.4205 13.8295C69.6315 14.0405 69.75 14.3266 69.75 14.625V17.25C69.75 18.4435 69.2759 19.5881 68.432 20.432C67.5881 21.2759 66.4435 21.75 65.25 21.75H62.625C62.3266 21.75 62.0405 21.6315 61.8295 21.4205C61.6185 21.2095 61.5 20.9234 61.5 20.625C61.5 20.3266 61.6185 20.0405 61.8295 19.8295C62.0405 19.6185 62.3266 19.5 62.625 19.5H65.25C65.8467 19.5 66.419 19.2629 66.841 18.841C67.2629 18.419 67.5 17.8467 67.5 17.25V14.625C67.5 14.3266 67.6185 14.0405 67.8295 13.8295C68.0405 13.6185 68.3266 13.5 68.625 13.5Z" fill="white"/>
<defs>
<clipPath id="clip0_161_413">
<rect width="24" height="24" fill="white"/>
</clipPath>
</defs>
</svg>
