<svg width="436" height="373" viewBox="0 0 436 373" fill="none" xmlns="http://www.w3.org/2000/svg">
<path d="M349.648 46.2867C376.834 61.6819 401.416 80.4036 423.035 101.788C444.284 186.063 439.541 270.84 399.669 356.334C355.697 369.875 316.389 373.63 279.582 372.155C275.481 358.21 272.547 343.877 270.753 329.318C284.253 329.009 297.658 327.495 310.771 324.842L311.5 324.695L311.089 324.075C309.002 320.924 306.98 317.687 305.045 314.408L304.882 314.133L304.564 314.165C228.041 321.794 156.058 296.109 100.857 241.474L100.629 241.248L100.33 241.36C96.7896 242.684 93.1771 243.909 89.5367 245.015L88.8204 245.233L89.2948 245.812C97.745 256.124 107.132 265.77 117.386 274.555C106.771 284.719 95.406 293.915 83.4315 302.125C54.0385 279.978 26.0183 252.197 0.540412 213.911C20.6924 135.063 62.5788 62.7425 143.415 2.08382C173.7 -0.816407 204.625 0.232026 235.448 5.53601C236.726 13.2478 237.869 23.2887 238.274 31.1148L238.294 31.5062L238.679 31.5811C270.758 37.7748 301.461 48.7301 330.786 64.4483L331.131 64.6324L331.393 64.3429C336.663 58.5396 343.812 51.4578 349.648 46.2867ZM179.412 131.377C158.816 124.027 135.922 137.176 127.767 160.029C119.611 182.886 129.375 207.648 149.618 214.872C170.212 222.22 193.125 209.12 201.251 186.259C209.774 163.485 200.003 138.724 179.412 131.377ZM313.455 179.208C292.858 171.858 269.964 185.006 261.809 207.859C253.652 230.716 263.416 255.479 283.661 262.703C304.254 270.051 327.135 256.938 335.292 234.089C343.815 211.316 334.045 186.555 313.455 179.208Z" fill="#2D2D34" stroke="url(#paint0_linear_151_174)"/>
<defs>
<linearGradient id="paint0_linear_151_174" x1="292.783" y1="25.4053" x2="214.044" y2="398.503" gradientUnits="userSpaceOnUse">
<stop stop-color="#41424C" stop-opacity="0"/>
<stop offset="1" stop-color="#41424C"/>
</linearGradient>
</defs>
</svg>
