<svg width="36" height="36" viewBox="0 0 36 36" fill="none" xmlns="http://www.w3.org/2000/svg">
<g opacity="0.7" clip-path="url(#clip0_196_519)">
<path fill-rule="evenodd" clip-rule="evenodd" d="M4.20753 19.1589L3.69228 18.0002L4.20753 16.8414C5.39317 14.1733 7.32723 11.9064 9.7753 10.3154C12.2234 8.72433 15.0804 7.87749 18 7.87749C20.9197 7.87749 23.7767 8.72433 26.2248 10.3154C28.6728 11.9064 30.6069 14.1733 31.7925 16.8414L32.3055 18.0002L31.7903 19.1589C30.6043 21.8264 28.6703 24.0926 26.2225 25.6832C23.7747 27.2737 20.9181 28.1203 17.9989 28.1203C15.0797 28.1203 12.2232 27.2737 9.77533 25.6832C7.32751 24.0926 5.39347 21.8264 4.20753 19.1589ZM1.12503 15.4712L0.540031 16.7874C0.370411 17.1696 0.282776 17.5831 0.282776 18.0013C0.282776 18.4194 0.370411 18.833 0.540031 19.2152L1.12503 20.5292C2.57624 23.7929 4.94276 26.5658 7.93788 28.5119C10.933 30.458 14.4282 31.4937 18 31.4937C21.5719 31.4937 25.0671 30.458 28.0622 28.5119C31.0573 26.5658 33.4238 23.7929 34.875 20.5292L35.46 19.2152C35.63 18.8326 35.7178 18.4187 35.7178 18.0002C35.7178 17.5816 35.63 17.1677 35.46 16.7852L34.875 15.4712C33.4238 12.2074 31.0573 9.43455 28.0622 7.48846C25.0671 5.54238 21.5719 4.50659 18 4.50659C14.4282 4.50659 10.933 5.54238 7.93788 7.48846C4.94276 9.43455 2.57624 12.2074 1.12503 15.4712ZM21.375 18.0002C21.375 18.8953 21.0195 19.7537 20.3865 20.3867C19.7536 21.0196 18.8951 21.3752 18 21.3752C17.1049 21.3752 16.2465 21.0196 15.6135 20.3867C14.9806 19.7537 14.625 18.8953 14.625 18.0002C14.625 17.1051 14.9806 16.2466 15.6135 15.6137C16.2465 14.9807 17.1049 14.6252 18 14.6252C18.8951 14.6252 19.7536 14.9807 20.3865 15.6137C21.0195 16.2466 21.375 17.1051 21.375 18.0002ZM24.75 18.0002C24.75 19.7904 24.0389 21.5073 22.773 22.7731C21.5071 24.039 19.7902 24.7502 18 24.7502C16.2098 24.7502 14.4929 24.039 13.2271 22.7731C11.9612 21.5073 11.25 19.7904 11.25 18.0002C11.25 16.21 11.9612 14.4931 13.2271 13.2272C14.4929 11.9613 16.2098 11.2502 18 11.2502C19.7902 11.2502 21.5071 11.9613 22.773 13.2272C24.0389 14.4931 24.75 16.21 24.75 18.0002Z" fill="#0F1113"/>
</g>
<defs>
<clipPath id="clip0_196_519">
<rect width="36" height="36" fill="white"/>
</clipPath>
</defs>
</svg>
