<svg width="24" height="24" viewBox="0 0 24 24" fill="none" xmlns="http://www.w3.org/2000/svg">
<path fill-rule="evenodd" clip-rule="evenodd" d="M4.5 17.25C4.5 17.8467 4.73705 18.419 5.15901 18.841C5.58097 19.2629 6.15326 19.5 6.75 19.5V15.75C6.75 14.9544 7.06607 14.1913 7.62868 13.6287C8.19129 13.0661 8.95435 12.75 9.75 12.75H14.25C15.0456 12.75 15.8087 13.0661 16.3713 13.6287C16.9339 14.1913 17.25 14.9544 17.25 15.75V19.5C17.8467 19.5 18.419 19.2629 18.841 18.841C19.2629 18.419 19.5 17.8467 19.5 17.25V9.054C19.5002 8.85678 19.4614 8.66147 19.386 8.47924C19.3106 8.297 19.2 8.13143 19.0605 7.992L16.008 4.9395C15.8686 4.80002 15.703 4.68941 15.5208 4.614C15.3385 4.53858 15.1432 4.49985 14.946 4.5H9V6C9 6.19891 9.07902 6.38968 9.21967 6.53033C9.36032 6.67098 9.55109 6.75 9.75 6.75H14.25C14.5484 6.75 14.8345 6.86853 15.0455 7.0795C15.2565 7.29048 15.375 7.57663 15.375 7.875C15.375 8.17337 15.2565 8.45952 15.0455 8.6705C14.8345 8.88147 14.5484 9 14.25 9H9.75C8.95435 9 8.19129 8.68393 7.62868 8.12132C7.06607 7.55871 6.75 6.79565 6.75 6V4.5C6.15326 4.5 5.58097 4.73705 5.15901 5.15901C4.73705 5.58097 4.5 6.15326 4.5 6.75V17.25ZM2.25 17.25C2.25 18.4435 2.72411 19.5881 3.56802 20.432C4.41193 21.2759 5.55653 21.75 6.75 21.75H17.25C18.4435 21.75 19.5881 21.2759 20.432 20.432C21.2759 19.5881 21.75 18.4435 21.75 17.25V9.054C21.7501 8.56151 21.6532 8.07382 21.4648 7.61879C21.2764 7.16376 21.0002 6.75029 20.652 6.402L17.598 3.348C17.2497 2.9998 16.8362 2.72362 16.3812 2.53522C15.9262 2.34683 15.4385 2.24991 14.946 2.25H6.75C5.55653 2.25 4.41193 2.72411 3.56802 3.56802C2.72411 4.41193 2.25 5.55653 2.25 6.75V17.25ZM15 15.75V19.5H9V15.75C9 15.5511 9.07902 15.3603 9.21967 15.2197C9.36032 15.079 9.55109 15 9.75 15H14.25C14.4489 15 14.6397 15.079 14.7803 15.2197C14.921 15.3603 15 15.5511 15 15.75Z" fill="#3152FE"/>
</svg>
