<svg width="1272" height="48" viewBox="0 0 1272 48" fill="none" xmlns="http://www.w3.org/2000/svg">
<g clip-path="url(#clip0_126_1084)">
<path d="M9.23727 25.0735H2.1836C1.62898 25.0735 0.963857 25.1535 0.498888 24.781C-0.499848 23.9834 0.221577 23.051 0.755349 22.327L12.3711 6.13028C12.8673 5.42735 13.3407 4.70339 13.8744 4.02992C15.9032 1.48339 18.3114 0.346921 21.4244 0.00177152C27.3626 -0.0971431 32.4084 3.95415 32.6712 10.1584C32.7212 11.3622 32.6795 12.5829 32.6795 13.7888V28.5713C32.6795 29.1291 32.7858 29.8782 32.473 30.3728C32.0727 31 31.2366 31.1831 30.5986 30.819C30.1503 30.5622 29.7125 30.013 29.3434 29.6426L26.0031 26.2732C25.4861 25.7491 24.9856 25.0672 24.3685 24.6694C23.9056 25.0861 23.4865 25.5533 23.0424 25.9911L19.2622 29.7646C18.6263 30.4044 18.0091 31.082 17.346 31.6903C16.462 32.4185 15.8136 31.7114 15.2297 31.122L11.266 27.1192C10.5988 26.4331 9.96289 25.6986 9.23939 25.0714L9.23727 25.0735Z" fill="#0F1113"/>
<path d="M43.3894 8.23926L47.1175 20.0272H47.2606L50.9964 8.23926H54.6116L49.2942 23.7544H45.0915L39.7666 8.23926H43.3894Z" fill="#0F1113"/>
<path d="M56.0159 23.7544H52.5211L57.8461 8.23926H62.0488L67.3661 23.7544H63.8714L60.0076 11.7847H59.8872L56.0159 23.7544ZM55.7974 17.656H64.0522V20.2165H55.7974V17.656Z" fill="#0F1113"/>
<path d="M81.0641 8.23926V23.7544H78.2472L71.5365 13.9893H71.4235V23.7544H68.1623V8.23926H71.0243L77.6823 17.9968H77.8179V8.23926H81.0641Z" fill="#0F1113"/>
<path d="M85.9594 8.23926V23.7544H82.6981V8.23926H85.9594Z" fill="#0F1113"/>
<path d="M95.95 12.7011C95.8899 12.09 95.631 11.6152 95.1741 11.2768C94.7172 10.9384 94.0968 10.7693 93.3139 10.7693C92.7819 10.7693 92.3321 10.845 91.9653 10.9966C91.5986 11.1431 91.3175 11.3476 91.1222 11.6102C90.9314 11.8728 90.8359 12.1708 90.8359 12.5041C90.8253 12.7819 90.8836 13.0243 91.0091 13.2314C91.1399 13.4384 91.3175 13.6177 91.5438 13.7693C91.77 13.9158 92.0307 14.0446 92.3267 14.1557C92.6237 14.2617 92.9392 14.3527 93.2759 14.4284L94.6615 14.7617C95.3349 14.9132 95.9527 15.1152 96.5147 15.3678C97.0767 15.6203 97.5637 15.9309 97.9755 16.2996C98.3873 16.6683 98.7063 17.1026 98.9326 17.6026C99.1632 18.1026 99.2816 18.6759 99.286 19.3223C99.2816 20.2718 99.0404 21.0951 98.5632 21.792C98.0913 22.4839 97.4081 23.0218 96.5147 23.4056C95.6257 23.7844 94.5537 23.9738 93.2988 23.9738C92.0537 23.9738 90.9685 23.7819 90.045 23.3981C89.1259 23.0143 88.4083 22.4461 87.8908 21.6935C87.3787 20.9359 87.1101 19.9991 87.085 18.8829H90.2412C90.2756 19.4031 90.4241 19.8375 90.6848 20.186C90.9508 20.5294 91.3052 20.7895 91.747 20.9663C92.1942 21.138 92.6988 21.2239 93.2608 21.2239C93.8132 21.2239 94.293 21.1431 94.6995 20.9814C95.1114 20.8198 95.4304 20.5951 95.6557 20.3071C95.882 20.0193 95.9951 19.6885 95.9951 19.3147C95.9951 18.9663 95.8917 18.6733 95.6858 18.4359C95.4852 18.1986 95.1891 17.9966 94.7976 17.8299C94.4106 17.6632 93.936 17.5117 93.374 17.3753L91.694 16.9511C90.3941 16.6329 89.3672 16.1354 88.6142 15.4587C87.8607 14.7819 87.4866 13.8703 87.4916 12.7239C87.4866 11.7844 87.7352 10.9638 88.2373 10.2617C88.7441 9.55968 89.4396 9.01168 90.3234 8.61777C91.2071 8.22382 92.2119 8.02686 93.336 8.02686C94.4813 8.02686 95.4799 8.22382 96.3335 8.61777C97.1925 9.01168 97.8606 9.55968 98.3369 10.2617C98.8141 10.9638 99.0607 11.7768 99.0757 12.7011H95.95Z" fill="#0F1113"/>
<path d="M100.42 23.7544V8.23926H103.681V14.6408H110.301V8.23926H113.555V23.7544H110.301V17.3453H103.681V23.7544H100.42Z" fill="#0F1113"/>
</g>
<rect x="1112" width="48" height="48" rx="16" fill="white"/>
<rect x="1112.5" y="0.5" width="47" height="47" rx="15.5" stroke="#0F1113" stroke-opacity="0.05"/>
<path fill-rule="evenodd" clip-rule="evenodd" d="M1129.1 22.7173C1133.39 20.8524 1136.25 19.6133 1137.68 19.0121C1141.77 17.3067 1142.63 17.0123 1143.18 17C1143.3 17 1143.57 17.0245 1143.76 17.1718C1143.9 17.2945 1143.94 17.4539 1143.97 17.5766C1143.99 17.6993 1144.01 17.957 1143.99 18.1533C1143.77 20.4843 1142.81 26.1403 1142.32 28.7413C1142.11 29.8454 1141.71 30.2135 1141.32 30.2503C1140.46 30.3239 1139.81 29.686 1138.98 29.1461C1137.68 28.2996 1136.96 27.772 1135.7 26.9377C1134.24 25.9808 1135.18 25.4532 1136.02 24.5944C1136.24 24.3736 1140 20.9383 1140.08 20.6316C1140.09 20.5948 1140.09 20.4475 1140 20.3739C1139.92 20.3003 1139.79 20.3248 1139.7 20.3494C1139.56 20.3739 1137.5 21.748 1133.49 24.4594C1132.9 24.8643 1132.37 25.0606 1131.89 25.0483C1131.37 25.0361 1130.36 24.7539 1129.6 24.5085C1128.68 24.2141 1127.94 24.0546 1128 23.5393C1128.04 23.2694 1128.41 22.9994 1129.1 22.7173Z" fill="black"/>
<rect x="1168" width="48" height="48" rx="16" fill="white"/>
<rect x="1168.5" y="0.5" width="47" height="47" rx="15.5" stroke="#0F1113" stroke-opacity="0.05"/>
<path d="M1197.56 18.8542C1196.52 18.3696 1195.41 18.0174 1194.26 17.8169C1194.11 18.074 1193.95 18.4197 1193.83 18.6948C1192.6 18.5097 1191.38 18.5097 1190.17 18.6948C1190.06 18.4197 1189.89 18.074 1189.75 17.8169C1188.59 18.0174 1187.48 18.3709 1186.44 18.8567C1184.35 22.0136 1183.79 25.0919 1184.07 28.1266C1185.46 29.1613 1186.8 29.7899 1188.12 30.2012C1188.45 29.7526 1188.74 29.2757 1188.99 28.7732C1188.51 28.5919 1188.05 28.3683 1187.62 28.1086C1187.74 28.0238 1187.85 27.9351 1187.96 27.8438C1190.59 29.0752 1193.45 29.0752 1196.05 27.8438C1196.16 27.9351 1196.27 28.0238 1196.38 28.1086C1195.95 28.3696 1195.49 28.5932 1195.02 28.7745C1195.27 29.2757 1195.56 29.7539 1195.88 30.2025C1197.21 29.7911 1198.55 29.1626 1199.93 28.1266C1200.27 24.6087 1199.37 21.5585 1197.56 18.8542ZM1189.34 26.2603C1188.55 26.2603 1187.91 25.5225 1187.91 24.6241C1187.91 23.7256 1188.54 22.9866 1189.34 22.9866C1190.15 22.9866 1190.8 23.7243 1190.78 24.6241C1190.78 25.5225 1190.15 26.2603 1189.34 26.2603ZM1194.66 26.2603C1193.87 26.2603 1193.22 25.5225 1193.22 24.6241C1193.22 23.7256 1193.86 22.9866 1194.66 22.9866C1195.46 22.9866 1196.11 23.7243 1196.1 24.6241C1196.1 25.5225 1195.46 26.2603 1194.66 26.2603Z" fill="black"/>
<rect x="1224" width="48" height="48" rx="16" fill="white"/>
<rect x="1224.5" y="0.5" width="47" height="47" rx="15.5" stroke="#0F1113" stroke-opacity="0.05"/>
<path d="M1248.33 16.5145C1249.15 16.502 1249.96 16.5085 1250.77 16.502C1250.8 17.5175 1251.21 18.4315 1251.87 19.1085L1251.86 19.1075C1252.57 19.743 1253.49 20.155 1254.5 20.225L1254.51 20.226V22.744C1253.56 22.72 1252.66 22.4995 1251.85 22.1205L1251.89 22.1375C1251.5 21.949 1251.19 21.7725 1250.88 21.5565C1250.87 23.381 1250.88 25.2055 1250.86 27.0235C1250.81 27.95 1250.51 28.795 1250.01 29.5005L1250.02 29.485C1249.2 30.668 1247.86 31.4445 1246.34 31.4905H1246.33C1246.27 31.4935 1246.19 31.495 1246.12 31.495C1245.26 31.495 1244.45 31.254 1243.76 30.8355L1243.78 30.847C1242.53 30.0925 1241.66 28.8015 1241.5 27.3L1241.5 27.2795C1241.49 26.967 1241.48 26.6545 1241.49 26.3485C1241.74 23.959 1243.74 22.1105 1246.17 22.1105C1246.45 22.1105 1246.69 22.13 1246.95 22.1745C1246.96 23.099 1246.92 24.024 1246.92 24.9485C1246.71 24.872 1246.47 24.8275 1246.21 24.8275C1245.28 24.8275 1244.48 25.4245 1244.19 26.258L1244.18 26.273C1244.12 26.4865 1244.08 26.732 1244.08 26.986C1244.08 27.089 1244.09 27.191 1244.1 27.291L1244.1 27.279C1244.26 28.302 1245.14 29.074 1246.2 29.074C1246.23 29.074 1246.26 29.0735 1246.29 29.072H1246.28C1247.02 29.05 1247.65 28.6565 1248.01 28.075L1248.01 28.066C1248.15 27.88 1248.24 27.655 1248.27 27.4105L1248.27 27.4035C1248.33 26.285 1248.31 25.173 1248.31 24.0545C1248.32 21.5365 1248.31 19.0245 1248.33 16.513L1248.33 16.5145Z" fill="black"/>
<defs>
<clipPath id="clip0_126_1084">
<rect width="114" height="32" fill="white"/>
</clipPath>
</defs>
</svg>
