<svg width="36" height="36" viewBox="0 0 36 36" fill="none" xmlns="http://www.w3.org/2000/svg">
<g opacity="0.7">
<path fill-rule="evenodd" clip-rule="evenodd" d="M20.718 27.7785C19.6268 30.0285 18.5737 30.375 18 30.375C17.4263 30.375 16.3733 30.0285 15.282 27.7785C14.445 26.0505 13.8263 23.598 13.5968 20.6077C16.5258 20.8819 19.4742 20.8819 22.4032 20.6077C22.1737 23.598 21.555 26.0505 20.7157 27.7785M22.4888 17.2057C21.0555 17.3565 19.5525 17.4375 18 17.4375C16.4475 17.4375 14.9445 17.3565 13.509 17.2057C13.5923 13.3897 14.2807 10.287 15.282 8.2215C16.3733 5.9715 17.4263 5.625 18 5.625C18.5737 5.625 19.6268 5.9715 20.718 8.2215C21.7192 10.287 22.4055 13.3897 22.491 17.2057M25.8165 20.1443C25.6252 23.5553 24.9727 26.5522 23.9355 28.8607C25.73 27.8801 27.2536 26.4699 28.3698 24.7564C29.4861 23.0429 30.1603 21.0795 30.3323 19.0417C28.935 19.4895 27.4185 19.8608 25.8165 20.1443ZM30.132 15.5475C28.845 16.0065 27.4095 16.4002 25.8547 16.704C25.7288 12.9442 25.0582 9.639 23.9355 7.13925C25.5189 8.00431 26.8939 9.20513 27.9643 10.6576C29.0347 12.11 29.7746 13.779 30.132 15.5475ZM10.1452 16.704C10.2712 12.9442 10.9417 9.639 12.0645 7.13925C10.4811 8.00431 9.10608 9.20513 8.03569 10.6576C6.96529 12.11 6.22545 13.779 5.868 15.5475C7.155 16.0065 8.5905 16.4002 10.1452 16.704ZM5.67 19.0417C5.8419 21.0795 6.51614 23.0429 7.63242 24.7564C8.74869 26.4699 10.2722 27.8801 12.0667 28.8607C11.0317 26.5522 10.3792 23.5553 10.1858 20.1443C8.65766 19.8776 7.14906 19.5093 5.67 19.0417ZM33.75 18C33.75 13.8228 32.0906 9.81677 29.1369 6.86307C26.1832 3.90937 22.1772 2.25 18 2.25C13.8228 2.25 9.81677 3.90937 6.86307 6.86307C3.90937 9.81677 2.25 13.8228 2.25 18C2.25 22.1772 3.90937 26.1832 6.86307 29.1369C9.81677 32.0906 13.8228 33.75 18 33.75C22.1772 33.75 26.1832 32.0906 29.1369 29.1369C32.0906 26.1832 33.75 22.1772 33.75 18Z" fill="#0F1113"/>
</g>
</svg>
