<svg width="16" height="16" viewBox="0 0 16 16" fill="none" xmlns="http://www.w3.org/2000/svg">
<path fill-rule="evenodd" clip-rule="evenodd" d="M8 13.5C9.248 13.5 10.4 13.084 11.323 12.383L9.887 10.948C9.32366 11.3085 8.66882 11.5001 8 11.5C7.33118 11.5001 6.67634 11.3085 6.113 10.948L4.677 12.383C5.63248 13.1091 6.79991 13.5016 8 13.5ZM5.052 9.887C4.69148 9.32366 4.49993 8.66882 4.5 8C4.5 7.305 4.703 6.657 5.052 6.113L3.617 4.677C2.89085 5.63248 2.49843 6.79991 2.5 8C2.5 9.248 2.916 10.4 3.617 11.323L5.052 9.887ZM6.112 5.052L4.678 3.617C5.6332 2.89106 6.80025 2.49865 8 2.5C9.248 2.5 10.4 2.916 11.323 3.617L9.887 5.052C9.32366 4.69148 8.66882 4.49993 8 4.5C7.305 4.5 6.656 4.703 6.112 5.052ZM10.949 6.112C11.299 6.657 11.501 7.305 11.501 8C11.501 8.695 11.298 9.343 10.949 9.887L12.384 11.323C13.1098 10.3674 13.5019 9.19998 13.5 8C13.5 6.752 13.084 5.6 12.383 4.677L10.949 6.112ZM8 15C9.85652 15 11.637 14.2625 12.9497 12.9497C14.2625 11.637 15 9.85652 15 8C15 6.14348 14.2625 4.36301 12.9497 3.05025C11.637 1.7375 9.85652 1 8 1C6.14348 1 4.36301 1.7375 3.05025 3.05025C1.7375 4.36301 1 6.14348 1 8C1 9.85652 1.7375 11.637 3.05025 12.9497C4.36301 14.2625 6.14348 15 8 15ZM10 8C10 8.53043 9.78929 9.03914 9.41421 9.41421C9.03914 9.78929 8.53043 10 8 10C7.46957 10 6.96086 9.78929 6.58579 9.41421C6.21071 9.03914 6 8.53043 6 8C6 7.46957 6.21071 6.96086 6.58579 6.58579C6.96086 6.21071 7.46957 6 8 6C8.53043 6 9.03914 6.21071 9.41421 6.58579C9.78929 6.96086 10 7.46957 10 8Z" fill="black"/>
</svg>
