<svg width="24" height="24" viewBox="0 0 24 24" fill="none" xmlns="http://www.w3.org/2000/svg">
<g clip-path="url(#clip0_152_313)">
<path fill-rule="evenodd" clip-rule="evenodd" d="M1.88951 0.0235035L20.0409 2.67335C21.0815 2.82522 22.0129 3.80866 22.1269 4.86944L23.9887 22.253C24.1008 23.2998 23.3648 24.0793 22.3387 23.9935L4.45779 22.5048C3.31217 22.4096 2.27435 21.4276 2.14592 20.311L0.0131031 1.76632C-0.116741 0.632878 0.726541 -0.146653 1.88951 0.0235035Z" fill="#008736"/>
<path opacity="0.15" fill-rule="evenodd" clip-rule="evenodd" d="M1.18266 2.535L3.14391 19.5956C3.24891 20.5069 4.11047 21.3277 5.05735 21.4064L21.5072 22.7761C21.9131 22.8098 22.2469 22.673 22.4686 22.4386C22.6913 22.2033 22.8173 21.8536 22.7723 21.4336L21.0595 5.44219C20.9658 4.57031 20.1886 3.75328 19.3397 3.62906L2.64188 1.19156C2.16657 1.12172 1.77938 1.24828 1.52625 1.48359C1.2736 1.7175 1.13016 2.08031 1.18266 2.53547V2.535ZM0.949691 2.56172L2.91141 19.6219C3.02907 20.6484 3.98438 21.5517 5.03813 21.6394L21.4875 23.0091C22.4311 23.0878 23.1084 22.3711 23.0053 21.4083L21.2925 5.41641C21.188 4.44047 20.3316 3.53625 19.3739 3.39609L2.67563 0.958595C1.60547 0.802032 0.830159 1.51969 0.949691 2.56125V2.56172Z" fill="white"/>
<path fill-rule="evenodd" clip-rule="evenodd" d="M5 7L12 19L19 7H9.67265L12 11.0077L13.1665 9.02406H15.4876L12 14.9837L7.33911 7H5Z" fill="white"/>
</g>
<defs>
<clipPath id="clip0_152_313">
<rect width="24" height="24" fill="white"/>
</clipPath>
</defs>
</svg>
