<svg width="16" height="16" viewBox="0 0 16 16" fill="none" xmlns="http://www.w3.org/2000/svg">
<g clip-path="url(#clip0_148_1040)">
<path d="M14.642 6.285C15.936 7.062 15.936 8.938 14.642 9.715L5.53 15.183C4.238 15.958 2.606 15.081 2.505 13.612L2.5 13.468V2.532L2.505 2.389C2.605 0.919 4.238 0.043 5.53 0.818L14.642 6.285ZM13.871 8.429C13.9449 8.38455 14.0061 8.32173 14.0486 8.24664C14.091 8.17156 14.1133 8.08676 14.1133 8.0005C14.1133 7.91424 14.091 7.82944 14.0486 7.75436C14.0061 7.67927 13.9449 7.61645 13.871 7.572L4.756 2.104C4.68021 2.05883 4.59382 2.03451 4.50559 2.03352C4.41736 2.03254 4.33045 2.05491 4.25367 2.09838C4.17688 2.14185 4.11297 2.20486 4.06842 2.28102C4.02387 2.35718 4.00026 2.44377 4 2.532V13.468C3.99998 13.5565 4.02343 13.6434 4.06797 13.7198C4.1125 13.7962 4.17651 13.8595 4.25348 13.9031C4.33044 13.9467 4.41761 13.9691 4.50606 13.9681C4.59452 13.967 4.68111 13.9425 4.757 13.897L13.871 8.429Z" fill="black"/>
</g>
<defs>
<clipPath id="clip0_148_1040">
<rect width="16" height="16" fill="white"/>
</clipPath>
</defs>
</svg>
