<svg width="24" height="24" viewBox="0 0 24 24" fill="none" xmlns="http://www.w3.org/2000/svg">
<path d="M21.963 9.42792C23.904 10.5934 23.904 13.4074 21.963 14.5729L8.295 22.7749C6.357 23.9374 3.909 22.6219 3.7575 20.4184L3.75 20.2024V3.79842L3.7575 3.58392C3.9075 1.37892 6.357 0.0649233 8.295 1.22742L21.963 9.42792ZM20.8065 12.6439C20.9174 12.5772 21.0091 12.483 21.0728 12.3704C21.1365 12.2578 21.17 12.1306 21.17 12.0012C21.17 11.8718 21.1365 11.7446 21.0728 11.632C21.0091 11.5193 20.9174 11.4251 20.8065 11.3584L7.134 3.15642C7.02032 3.08866 6.89072 3.05219 6.75838 3.05071C6.62605 3.04923 6.49567 3.08279 6.3805 3.148C6.26533 3.2132 6.16946 3.30772 6.10263 3.42195C6.0358 3.53619 6.00039 3.66608 6 3.79842V20.2024C5.99997 20.3351 6.03515 20.4655 6.10195 20.5801C6.16875 20.6948 6.26477 20.7897 6.38022 20.8551C6.49567 20.9205 6.62641 20.9541 6.7591 20.9525C6.89179 20.9509 7.02167 20.9141 7.1355 20.8459L20.8065 12.6439Z" fill="white"/>
</svg>
