<svg width="16" height="16" viewBox="0 0 16 16" fill="none" xmlns="http://www.w3.org/2000/svg">
<path fill-rule="evenodd" clip-rule="evenodd" d="M4.5 3C4.10218 3 3.72064 3.15804 3.43934 3.43934C3.15804 3.72064 3 4.10218 3 4.5V6.25C3 6.44891 2.92098 6.63968 2.78033 6.78033C2.63968 6.92098 2.44891 7 2.25 7C2.05109 7 1.86032 6.92098 1.71967 6.78033C1.57902 6.63968 1.5 6.44891 1.5 6.25V4.5C1.5 3.70435 1.81607 2.94129 2.37868 2.37868C2.94129 1.81607 3.70435 1.5 4.5 1.5H6.25C6.44891 1.5 6.63968 1.57902 6.78033 1.71967C6.92098 1.86032 7 2.05109 7 2.25C7 2.44891 6.92098 2.63968 6.78033 2.78033C6.63968 2.92098 6.44891 3 6.25 3H4.5ZM9 2.25C9 2.05109 9.07902 1.86032 9.21967 1.71967C9.36032 1.57902 9.55109 1.5 9.75 1.5H11.5C12.2956 1.5 13.0587 1.81607 13.6213 2.37868C14.1839 2.94129 14.5 3.70435 14.5 4.5V6.25C14.5 6.44891 14.421 6.63968 14.2803 6.78033C14.1397 6.92098 13.9489 7 13.75 7C13.5511 7 13.3603 6.92098 13.2197 6.78033C13.079 6.63968 13 6.44891 13 6.25V4.5C13 4.10218 12.842 3.72064 12.5607 3.43934C12.2794 3.15804 11.8978 3 11.5 3H9.75C9.55109 3 9.36032 2.92098 9.21967 2.78033C9.07902 2.63968 9 2.44891 9 2.25ZM2.25 9C2.44891 9 2.63968 9.07902 2.78033 9.21967C2.92098 9.36032 3 9.55109 3 9.75V11.5C3 11.8978 3.15804 12.2794 3.43934 12.5607C3.72064 12.842 4.10218 13 4.5 13H6.25C6.44891 13 6.63968 13.079 6.78033 13.2197C6.92098 13.3603 7 13.5511 7 13.75C7 13.9489 6.92098 14.1397 6.78033 14.2803C6.63968 14.421 6.44891 14.5 6.25 14.5H4.5C3.70435 14.5 2.94129 14.1839 2.37868 13.6213C1.81607 13.0587 1.5 12.2956 1.5 11.5V9.75C1.5 9.55109 1.57902 9.36032 1.71967 9.21967C1.86032 9.07902 2.05109 9 2.25 9ZM13.75 9C13.9489 9 14.1397 9.07902 14.2803 9.21967C14.421 9.36032 14.5 9.55109 14.5 9.75V11.5C14.5 12.2956 14.1839 13.0587 13.6213 13.6213C13.0587 14.1839 12.2956 14.5 11.5 14.5H9.75C9.55109 14.5 9.36032 14.421 9.21967 14.2803C9.07902 14.1397 9 13.9489 9 13.75C9 13.5511 9.07902 13.3603 9.21967 13.2197C9.36032 13.079 9.55109 13 9.75 13H11.5C11.8978 13 12.2794 12.842 12.5607 12.5607C12.842 12.2794 13 11.8978 13 11.5V9.75C13 9.55109 13.079 9.36032 13.2197 9.21967C13.3603 9.07902 13.5511 9 13.75 9Z" fill="black"/>
</svg>
