<svg width="114" height="32" viewBox="0 0 114 32" fill="none" xmlns="http://www.w3.org/2000/svg">
<g clip-path="url(#clip0_152_311)">
<path d="M9.23727 25.0735H2.1836C1.62898 25.0735 0.963857 25.1535 0.498888 24.781C-0.499848 23.9834 0.221577 23.051 0.755349 22.327L12.3711 6.13028C12.8673 5.42735 13.3407 4.70339 13.8744 4.02992C15.9032 1.48339 18.3114 0.346921 21.4244 0.00177152C27.3626 -0.0971431 32.4084 3.95415 32.6712 10.1584C32.7212 11.3622 32.6795 12.5829 32.6795 13.7888V28.5713C32.6795 29.1291 32.7858 29.8782 32.473 30.3728C32.0727 31 31.2366 31.1831 30.5986 30.819C30.1503 30.5622 29.7125 30.013 29.3434 29.6426L26.0031 26.2732C25.4861 25.7491 24.9856 25.0672 24.3685 24.6694C23.9056 25.0861 23.4865 25.5533 23.0424 25.9911L19.2622 29.7646C18.6263 30.4044 18.0091 31.082 17.346 31.6903C16.462 32.4185 15.8136 31.7114 15.2297 31.122L11.266 27.1192C10.5988 26.4331 9.96289 25.6986 9.23939 25.0714L9.23727 25.0735Z" fill="#0F1113"/>
<path d="M43.3894 8.23903L47.1175 20.0269H47.2606L50.9964 8.23903H54.6116L49.2942 23.7542H45.0915L39.7666 8.23903H43.3894Z" fill="#0F1113"/>
<path d="M56.0159 23.7542H52.5211L57.8461 8.23903H62.0488L67.3661 23.7542H63.8714L60.0076 11.7844H59.8872L56.0159 23.7542ZM55.7974 17.6557H64.0522V20.2163H55.7974V17.6557Z" fill="#0F1113"/>
<path d="M81.0641 8.23903V23.7542H78.2472L71.5365 13.9891H71.4235V23.7542H68.1623V8.23903H71.0243L77.6823 17.9966H77.8179V8.23903H81.0641Z" fill="#0F1113"/>
<path d="M85.9594 8.23903V23.7542H82.6981V8.23903H85.9594Z" fill="#0F1113"/>
<path d="M95.95 12.7012C95.8899 12.09 95.631 11.6153 95.1741 11.2769C94.7172 10.9385 94.0968 10.7693 93.3139 10.7693C92.7819 10.7693 92.3321 10.8451 91.9653 10.9966C91.5986 11.1431 91.3175 11.3476 91.1222 11.6102C90.9314 11.8729 90.8359 12.1708 90.8359 12.5042C90.8253 12.782 90.8836 13.0244 91.0091 13.2315C91.1399 13.4385 91.3175 13.6178 91.5438 13.7693C91.77 13.9158 92.0307 14.0446 92.3267 14.1557C92.6237 14.2618 92.9392 14.3527 93.2759 14.4284L94.6615 14.7618C95.3349 14.9132 95.9527 15.1153 96.5147 15.3678C97.0767 15.6204 97.5637 15.9309 97.9755 16.2996C98.3873 16.6684 98.7063 17.1027 98.9326 17.6027C99.1632 18.1027 99.2816 18.6759 99.286 19.3224C99.2816 20.2718 99.0404 21.0951 98.5632 21.7921C98.0913 22.484 97.4081 23.0219 96.5147 23.4057C95.6257 23.7844 94.5537 23.9739 93.2988 23.9739C92.0537 23.9739 90.9685 23.782 90.045 23.3981C89.1259 23.0143 88.4083 22.4461 87.8908 21.6936C87.3787 20.936 87.1101 19.9991 87.085 18.8829H90.2412C90.2756 19.4032 90.4241 19.8375 90.6848 20.186C90.9508 20.5294 91.3052 20.7895 91.747 20.9663C92.1942 21.138 92.6988 21.2239 93.2608 21.2239C93.8132 21.2239 94.293 21.1431 94.6995 20.9814C95.1114 20.8198 95.4304 20.5951 95.6557 20.3072C95.882 20.0194 95.9951 19.6885 95.9951 19.3148C95.9951 18.9663 95.8917 18.6733 95.6858 18.436C95.4852 18.1987 95.1891 17.9966 94.7976 17.83C94.4106 17.6633 93.936 17.5117 93.374 17.3754L91.694 16.9511C90.3941 16.633 89.3672 16.1355 88.6142 15.4588C87.8607 14.782 87.4866 13.8703 87.4916 12.7239C87.4866 11.7844 87.7352 10.9638 88.2373 10.2618C88.7441 9.55974 89.4396 9.01174 90.3234 8.61782C91.2071 8.22388 92.2119 8.02691 93.336 8.02691C94.4813 8.02691 95.4799 8.22388 96.3335 8.61782C97.1925 9.01174 97.8606 9.55974 98.3369 10.2618C98.8141 10.9638 99.0607 11.7769 99.0757 12.7012H95.95Z" fill="#0F1113"/>
<path d="M100.42 23.7542V8.23903H103.681V14.6405H110.301V8.23903H113.555V23.7542H110.301V17.3451H103.681V23.7542H100.42Z" fill="#0F1113"/>
</g>
<defs>
<clipPath id="clip0_152_311">
<rect width="114" height="32" fill="white"/>
</clipPath>
</defs>
</svg>
